<svg width="21" height="21" viewBox="0 0 21 21" fill="none" xmlns="http://www.w3.org/2000/svg">
<path d="M10.25 12.6026C10.4478 12.6026 10.6411 12.544 10.8056 12.4341C10.97 12.3242 11.0982 12.168 11.1739 11.9853C11.2496 11.8026 11.2694 11.6015 11.2308 11.4075C11.1922 11.2136 11.097 11.0354 10.9571 10.8955C10.8173 10.7557 10.6391 10.6604 10.4451 10.6218C10.2511 10.5833 10.05 10.6031 9.86732 10.6788C9.68459 10.7544 9.52841 10.8826 9.41853 11.0471C9.30865 11.2115 9.25 11.4048 9.25 11.6026C9.25 11.8678 9.35536 12.1222 9.54289 12.3097C9.73043 12.4973 9.98478 12.6026 10.25 12.6026ZM15.25 12.6026C15.4478 12.6026 15.6411 12.544 15.8056 12.4341C15.97 12.3242 16.0982 12.168 16.1739 11.9853C16.2496 11.8026 16.2694 11.6015 16.2308 11.4075C16.1922 11.2136 16.097 11.0354 15.9571 10.8955C15.8173 10.7557 15.6391 10.6604 15.4451 10.6218C15.2511 10.5833 15.05 10.6031 14.8673 10.6788C14.6846 10.7544 14.5284 10.8826 14.4185 11.0471C14.3086 11.2115 14.25 11.4048 14.25 11.6026C14.25 11.8678 14.3554 12.1222 14.5429 12.3097C14.7304 12.4973 14.9848 12.6026 15.25 12.6026ZM10.25 16.6026C10.4478 16.6026 10.6411 16.544 10.8056 16.4341C10.97 16.3242 11.0982 16.168 11.1739 15.9853C11.2496 15.8026 11.2694 15.6015 11.2308 15.4075C11.1922 15.2136 11.097 15.0354 10.9571 14.8955C10.8173 14.7557 10.6391 14.6604 10.4451 14.6218C10.2511 14.5833 10.05 14.6031 9.86732 14.6788C9.68459 14.7544 9.52841 14.8826 9.41853 15.0471C9.30865 15.2115 9.25 15.4048 9.25 15.6026C9.25 15.8678 9.35536 16.1222 9.54289 16.3097C9.73043 16.4973 9.98478 16.6026 10.25 16.6026ZM15.25 16.6026C15.4478 16.6026 15.6411 16.544 15.8056 16.4341C15.97 16.3242 16.0982 16.168 16.1739 15.9853C16.2496 15.8026 16.2694 15.6015 16.2308 15.4075C16.1922 15.2136 16.097 15.0354 15.9571 14.8955C15.8173 14.7557 15.6391 14.6604 15.4451 14.6218C15.2511 14.5833 15.05 14.6031 14.8673 14.6788C14.6846 14.7544 14.5284 14.8826 14.4185 15.0471C14.3086 15.2115 14.25 15.4048 14.25 15.6026C14.25 15.8678 14.3554 16.1222 14.5429 16.3097C14.7304 16.4973 14.9848 16.6026 15.25 16.6026ZM5.25 12.6026C5.44778 12.6026 5.64112 12.544 5.80557 12.4341C5.97002 12.3242 6.09819 12.168 6.17388 11.9853C6.24957 11.8026 6.26937 11.6015 6.23079 11.4075C6.1922 11.2136 6.09696 11.0354 5.95711 10.8955C5.81725 10.7557 5.63907 10.6604 5.44509 10.6218C5.25111 10.5833 5.05004 10.6031 4.86732 10.6788C4.68459 10.7544 4.52841 10.8826 4.41853 11.0471C4.30865 11.2115 4.25 11.4048 4.25 11.6026C4.25 11.8678 4.35536 12.1222 4.54289 12.3097C4.73043 12.4973 4.98478 12.6026 5.25 12.6026ZM17.25 2.60263H16.25V1.60263C16.25 1.33741 16.1446 1.08306 15.9571 0.895524C15.7696 0.707987 15.5152 0.602631 15.25 0.602631C14.9848 0.602631 14.7304 0.707987 14.5429 0.895524C14.3554 1.08306 14.25 1.33741 14.25 1.60263V2.60263H6.25V1.60263C6.25 1.33741 6.14464 1.08306 5.95711 0.895524C5.76957 0.707987 5.51522 0.602631 5.25 0.602631C4.98478 0.602631 4.73043 0.707987 4.54289 0.895524C4.35536 1.08306 4.25 1.33741 4.25 1.60263V2.60263H3.25C2.45435 2.60263 1.69129 2.9187 1.12868 3.48131C0.566071 4.04392 0.25 4.80698 0.25 5.60263V17.6026C0.25 18.3983 0.566071 19.1613 1.12868 19.724C1.69129 20.2866 2.45435 20.6026 3.25 20.6026H17.25C18.0456 20.6026 18.8087 20.2866 19.3713 19.724C19.9339 19.1613 20.25 18.3983 20.25 17.6026V5.60263C20.25 4.80698 19.9339 4.04392 19.3713 3.48131C18.8087 2.9187 18.0456 2.60263 17.25 2.60263ZM18.25 17.6026C18.25 17.8678 18.1446 18.1222 17.9571 18.3097C17.7696 18.4973 17.5152 18.6026 17.25 18.6026H3.25C2.98478 18.6026 2.73043 18.4973 2.54289 18.3097C2.35536 18.1222 2.25 17.8678 2.25 17.6026V8.60263H18.25V17.6026ZM18.25 6.60263H2.25V5.60263C2.25 5.33741 2.35536 5.08306 2.54289 4.89552C2.73043 4.70799 2.98478 4.60263 3.25 4.60263H17.25C17.5152 4.60263 17.7696 4.70799 17.9571 4.89552C18.1446 5.08306 18.25 5.33741 18.25 5.60263V6.60263ZM5.25 16.6026C5.44778 16.6026 5.64112 16.544 5.80557 16.4341C5.97002 16.3242 6.09819 16.168 6.17388 15.9853C6.24957 15.8026 6.26937 15.6015 6.23079 15.4075C6.1922 15.2136 6.09696 15.0354 5.95711 14.8955C5.81725 14.7557 5.63907 14.6604 5.44509 14.6218C5.25111 14.5833 5.05004 14.6031 4.86732 14.6788C4.68459 14.7544 4.52841 14.8826 4.41853 15.0471C4.30865 15.2115 4.25 15.4048 4.25 15.6026C4.25 15.8678 4.35536 16.1222 4.54289 16.3097C4.73043 16.4973 4.98478 16.6026 5.25 16.6026Z" fill="black"/>
</svg>
