<svg width="71" height="76" viewBox="0 0 71 76" fill="none" xmlns="http://www.w3.org/2000/svg">
<path d="M8.26359 67.2635C8.19492 67.0803 8.09573 66.9049 7.96602 66.737C7.84395 66.5691 7.66846 66.4242 7.43956 66.3021C7.2183 66.1724 6.93599 66.0694 6.59265 65.9931C6.25694 65.9168 5.84111 65.8786 5.34517 65.8786C5.0705 65.8786 4.79964 65.8977 4.5326 65.9359C4.27318 65.974 4.03666 66.0351 3.82302 66.119C3.61702 66.1953 3.44916 66.3021 3.31945 66.4394C3.19737 66.5691 3.13634 66.7294 3.13634 66.9201C3.13634 67.0117 3.15541 67.1032 3.19356 67.1948C3.23171 67.2787 3.31564 67.3626 3.44534 67.4466C3.57505 67.5305 3.76198 67.6068 4.00614 67.6755C4.25792 67.7441 4.58982 67.8052 5.00183 67.8586L6.97033 68.1561C7.43575 68.2248 7.85158 68.324 8.21781 68.4537C8.58404 68.5834 8.89305 68.7475 9.14483 68.9458C9.40425 69.1366 9.59881 69.3655 9.72852 69.6325C9.86585 69.8996 9.93452 70.2086 9.93452 70.5595C9.93452 71.0555 9.82389 71.4751 9.60262 71.8185C9.38899 72.1542 9.09524 72.4327 8.72138 72.6539C8.34751 72.8676 7.91261 73.0202 7.41667 73.1117C6.92074 73.2109 6.39428 73.2605 5.8373 73.2605C4.94461 73.2605 4.20833 73.1651 3.62846 72.9744C3.05622 72.7836 2.59843 72.5586 2.25509 72.2992C1.91175 72.0397 1.65996 71.7765 1.49974 71.5095C1.34714 71.2424 1.24795 71.0288 1.20217 70.8686L2.7701 70.3764C2.8464 70.529 2.94559 70.6931 3.06767 70.8686C3.19737 71.0364 3.37668 71.1966 3.60557 71.3492C3.8421 71.4942 4.14347 71.6163 4.50971 71.7155C4.87594 71.8147 5.33373 71.8642 5.88308 71.8642C6.21116 71.8642 6.52398 71.8375 6.82155 71.7841C7.11911 71.7307 7.37471 71.6544 7.58835 71.5552C7.80961 71.4561 7.9851 71.3378 8.11481 71.2005C8.24451 71.0555 8.30937 70.8914 8.30937 70.7083C8.30937 70.1666 7.70661 69.8195 6.50109 69.6669L4.50971 69.3922C3.54072 69.2625 2.79681 68.9954 2.27798 68.591C1.76678 68.1867 1.51118 67.664 1.51118 67.0231C1.51118 66.6111 1.59129 66.2639 1.75152 65.9816C1.91175 65.6917 2.11775 65.4552 2.36954 65.2721C2.62132 65.0813 2.89981 64.9364 3.205 64.8372C3.51783 64.738 3.81539 64.6655 4.0977 64.6197C4.38763 64.5739 4.64704 64.5472 4.87594 64.5396C5.11246 64.532 5.28414 64.5282 5.39095 64.5282C6.28364 64.5282 7.00466 64.6197 7.55401 64.8028C8.11099 64.9783 8.54589 65.1881 8.85871 65.4323C9.17154 65.6765 9.3928 65.9244 9.52251 66.1762C9.65222 66.4204 9.74378 66.6149 9.79718 66.7599L8.26359 67.2635ZM10.7472 64.7342H15.3823C15.6188 64.7342 15.8744 64.738 16.1491 64.7456C16.4238 64.7532 16.6985 64.7799 16.9731 64.8257C17.2478 64.8715 17.511 64.9478 17.7628 65.0546C18.0222 65.1538 18.2511 65.2988 18.4495 65.4895C18.6479 65.6803 18.8043 65.9206 18.9187 66.2105C19.0408 66.5005 19.1019 66.8591 19.1019 67.2863C19.1019 67.706 19.0408 68.0646 18.9187 68.3622C18.8043 68.6521 18.6479 68.8924 18.4495 69.0832C18.2511 69.2663 18.0222 69.4113 17.7628 69.5181C17.511 69.6173 17.2478 69.6897 16.9731 69.7355C16.6985 69.7813 16.4238 69.808 16.1491 69.8156C15.8744 69.8233 15.6188 69.8271 15.3823 69.8271H12.3723V73.0545H10.7472V64.7342ZM15.7371 68.4308C15.966 68.4308 16.1834 68.4232 16.3895 68.4079C16.6031 68.385 16.79 68.3354 16.9502 68.2592C17.1105 68.1829 17.2364 68.0684 17.3279 67.9158C17.4271 67.7556 17.4767 67.5419 17.4767 67.2749C17.4767 67.0079 17.4271 66.798 17.3279 66.6454C17.2364 66.4928 17.1105 66.3784 16.9502 66.3021C16.79 66.2258 16.6031 66.18 16.3895 66.1648C16.1834 66.1419 15.966 66.1304 15.7371 66.1304H12.3723V68.4308H15.7371ZM24.7191 69.747L22.9795 66.0389L21.2399 69.747H24.7191ZM22.0525 64.7342H23.9065L27.9465 73.0545H26.2298L25.36 71.1432H20.5646L19.6834 73.0545H17.9552L22.0525 64.7342ZM33.2073 68.4308C33.5354 68.4308 33.8254 68.4156 34.0771 68.385C34.3289 68.3545 34.5388 68.2973 34.7066 68.2134C34.8745 68.1294 35.0004 68.0112 35.0843 67.8586C35.1682 67.6984 35.2102 67.4962 35.2102 67.252C35.2102 67.0079 35.1682 66.8095 35.0843 66.6569C35.0004 66.5043 34.8745 66.386 34.7066 66.3021C34.5388 66.2182 34.3289 66.1609 34.0771 66.1304C33.8254 66.0999 33.5354 66.0846 33.2073 66.0846H30.0715V68.4308H33.2073ZM28.4463 64.7342H33.4477C33.936 64.7342 34.3862 64.7685 34.7982 64.8372C35.2178 64.9058 35.5764 65.0317 35.874 65.2148C36.1792 65.398 36.4157 65.6497 36.5835 65.9702C36.7514 66.2907 36.8353 66.7065 36.8353 67.2177C36.8353 67.5992 36.7705 67.9387 36.6408 68.2363C36.5187 68.5338 36.3508 68.7856 36.1372 68.9916C35.9236 69.1976 35.6756 69.3578 35.3933 69.4723C35.111 69.5867 34.8172 69.6516 34.512 69.6669L37.0642 73.0545H35.0614L32.6466 69.7813H30.0715V73.0545H28.4463V64.7342ZM42.8057 68.4308C43.1338 68.4308 43.4238 68.4156 43.6755 68.385C43.9273 68.3545 44.1371 68.2973 44.305 68.2134C44.4729 68.1294 44.5988 68.0112 44.6827 67.8586C44.7666 67.6984 44.8086 67.4962 44.8086 67.252C44.8086 67.0079 44.7666 66.8095 44.6827 66.6569C44.5988 66.5043 44.4729 66.386 44.305 66.3021C44.1371 66.2182 43.9273 66.1609 43.6755 66.1304C43.4238 66.0999 43.1338 66.0846 42.8057 66.0846H39.6699V68.4308H42.8057ZM38.0447 64.7342H43.0461C43.5344 64.7342 43.9845 64.7685 44.3966 64.8372C44.8162 64.9058 45.1748 65.0317 45.4724 65.2148C45.7776 65.398 46.0141 65.6497 46.1819 65.9702C46.3498 66.2907 46.4337 66.7065 46.4337 67.2177C46.4337 67.5992 46.3689 67.9387 46.2392 68.2363C46.1171 68.5338 45.9492 68.7856 45.7356 68.9916C45.522 69.1976 45.274 69.3578 44.9917 69.4723C44.7094 69.5867 44.4156 69.6516 44.1104 69.6669L46.6626 73.0545H44.6598L42.2449 69.7813H39.6699V73.0545H38.0447V64.7342ZM47.7461 64.7342H49.3713V73.0545H47.7461V64.7342ZM50.8709 64.7342H52.5876L58.1498 70.7427V64.7342H59.7062V73.0545H58.2184L52.4274 66.8286V73.0545H50.8709V64.7342ZM69.6899 68.7856V73.1461H68.7057L68.3852 72.2877C68.225 72.3945 68.0495 72.5052 67.8588 72.6196C67.668 72.7264 67.4467 72.8294 67.195 72.9286C66.9508 73.0278 66.6685 73.1079 66.348 73.169C66.0352 73.23 65.6766 73.2605 65.2722 73.2605C64.9213 73.2605 64.5589 73.23 64.185 73.169C63.8111 73.1079 63.4487 73.0087 63.0977 72.8714C62.7544 72.7341 62.4263 72.5548 62.1135 72.3335C61.8083 72.1046 61.5413 71.8299 61.3124 71.5095C61.0835 71.189 60.9003 70.8151 60.763 70.3879C60.6333 69.953 60.5684 69.4609 60.5684 68.9115C60.5684 68.3545 60.6562 67.8128 60.8317 67.2863C61.0072 66.7599 61.2818 66.2945 61.6557 65.8901C62.0296 65.4781 62.5102 65.15 63.0977 64.9058C63.6852 64.6541 64.3948 64.5282 65.2265 64.5282C65.7071 64.5282 66.1878 64.5778 66.6685 64.6769C67.1492 64.7685 67.5917 64.9249 67.9961 65.1462C68.4005 65.3674 68.7476 65.6574 69.0376 66.016C69.3351 66.367 69.5335 66.8057 69.6327 67.3321H67.9732C67.9274 67.2253 67.8549 67.0918 67.7558 66.9316C67.6642 66.7713 67.523 66.6187 67.3323 66.4738C67.1492 66.3212 66.905 66.1915 66.5998 66.0846C66.2946 65.9778 65.9017 65.9244 65.421 65.9244C64.7649 65.9244 64.227 66.0236 63.8073 66.222C63.3953 66.4127 63.0672 66.6569 62.8231 66.9544C62.5865 67.2444 62.4225 67.561 62.3309 67.9044C62.2394 68.2401 62.1936 68.5529 62.1936 68.8428C62.1936 69.3388 62.2699 69.7737 62.4225 70.1475C62.5827 70.5138 62.8002 70.8228 63.0748 71.0746C63.3495 71.3187 63.6738 71.5056 64.0477 71.6354C64.4291 71.7574 64.8412 71.8185 65.2837 71.8185C66.0924 71.8185 66.7257 71.6773 67.1835 71.395C67.6413 71.1127 67.9694 70.6778 68.1678 70.0903H65.2494V68.7856H69.6899Z" fill="#9FE870"/>
<path d="M52.9565 9.23158C53.4712 9.8392 53.9356 10.4933 54.373 11.1628C54.8993 11.9678 55.4218 12.7806 55.8514 13.6398C56.2926 14.5183 56.6409 15.4471 56.9892 16.3644C57.6394 18.0711 57.9994 19.8515 58.1929 21.6627C58.5141 24.6118 58.2354 27.5106 57.4575 30.3784C56.8654 32.5574 55.9636 34.6008 54.7406 36.4973C54.164 37.3913 53.506 38.235 52.8404 39.0671C50.646 41.8149 47.5846 43.99 44.411 45.4529C43.3042 45.9638 42.1199 46.3973 40.9007 46.3547C39.6816 46.3121 38.4199 45.6968 37.9091 44.5899C37.375 43.4327 37.762 42.082 38.1529 40.8706C39.9603 35.2665 41.7677 29.6586 43.5789 24.0545C43.8499 23.2108 44.1517 22.3826 44.2678 21.4963C44.4536 20.0798 44.2988 18.702 43.8073 17.3552C43.5054 16.5347 43.0565 15.8071 42.5533 15.0988C42.0502 14.3828 41.4348 13.7791 40.7111 13.2992C40.1306 12.9083 39.4959 12.5871 38.8534 12.2929C36.7557 11.3447 34.6271 11.4376 32.5062 12.2194C31.7399 12.5019 31.0394 12.9199 30.3738 13.4075C27.5446 15.482 26.1397 19.3754 27.2931 22.967C27.6723 24.128 28.0091 25.2968 28.3806 26.454C28.6593 27.3364 28.965 28.215 29.2553 29.0935C29.5494 29.9875 29.8319 30.8777 30.1183 31.7756C31.1439 34.9763 32.1734 38.1769 33.2029 41.3776C33.5473 42.4496 33.8918 43.6184 33.5086 44.675C33.079 45.8593 31.8057 46.5792 30.5518 46.6837C29.2978 46.792 28.0594 46.3934 26.8906 45.9212C21.2013 43.6262 16.3597 39.369 13.8595 33.7146C12.6946 31.0944 11.9864 28.3582 11.8161 25.4826C11.6845 23.3037 11.8741 21.1518 12.3424 19.0155C12.7488 17.15 13.3525 15.3543 14.235 13.663C14.6529 12.8618 15.0903 12.0646 15.5895 11.3099C16.1004 10.5358 16.6809 9.8005 17.2653 9.07677C17.6601 8.58912 18.1207 8.15953 18.5541 7.70284C18.6625 7.58673 18.7631 7.46676 18.8676 7.34678C19.2778 6.97911 19.6803 6.60757 20.0906 6.2399C20.1099 6.22055 20.137 6.20507 20.1603 6.18185L20.199 6.14701C20.9962 5.58583 21.7703 4.99369 22.5869 4.46734C23.3145 4.00291 24.0808 3.60428 24.8393 3.19404C25.2689 2.9657 25.7024 2.72961 26.1591 2.55932C27.0067 2.24583 27.8659 1.97492 28.725 1.69239C29.9983 1.27441 31.3142 1.07316 32.6378 0.937702C35.6218 0.631955 38.5631 0.852557 41.4426 1.71175C42.2902 1.96331 43.13 2.24971 43.9466 2.58641C44.7864 2.93473 45.6147 3.32176 46.4042 3.76683C47.244 4.239 48.0606 4.77309 48.8424 5.33427C49.4384 5.75999 49.9609 6.28247 50.5376 6.74303C51.4548 7.47063 52.2018 8.35304 52.9565 9.23158Z" fill="#9FE870"/>
<path d="M20.1978 6.14703C20.1978 6.14703 20.1715 6.16959 20.1602 6.18087C20.1715 6.16959 20.1866 6.15831 20.1978 6.14703Z" fill="#9FE870"/>
<path d="M17.2924 39.1445C17.2924 39.1445 17.319 39.175 17.3305 39.1865C17.319 39.1712 17.3038 39.156 17.2924 39.1445Z" fill="#9FE870"/>
<path d="M17.4201 39.2877C17.4201 39.2877 17.4468 39.3182 17.4583 39.3297C17.4468 39.3144 17.4316 39.2992 17.4201 39.2877Z" fill="#9FE870"/>
<path d="M18.0664 40.0037C18.0664 40.0037 18.0931 40.0303 18.1046 40.0456C18.0931 40.0303 18.0779 40.0189 18.0664 40.0037Z" fill="#9FE870"/>
<path d="M50.1389 41.783C50.1389 41.783 50.1652 41.7604 50.1765 41.7491C50.1652 41.7604 50.1502 41.7717 50.1389 41.783Z" fill="#9FE870"/>
<path d="M35.6295 25.8271C37.2924 25.8271 38.6405 24.479 38.6405 22.8161C38.6405 21.1531 37.2924 19.8051 35.6295 19.8051C33.9665 19.8051 32.6184 21.1531 32.6184 22.8161C32.6184 24.479 33.9665 25.8271 35.6295 25.8271Z" fill="#9FE870"/>
</svg>
