<svg width="672" height="144" viewBox="0 0 672 144" fill="none" xmlns="http://www.w3.org/2000/svg">
<path d="M0.609913 69.1845C0.609913 68.7845 0.709914 68.2845 0.809914 67.6845C4.80991 71.8845 8.20991 76.0845 12.3099 79.5845C29.3099 93.9845 54.5099 96.3845 73.4099 81.5845C77.2099 78.5845 81.0099 75.7845 85.0099 73.0845C99.1099 63.7845 117.51 66.6845 127.71 79.6845C137.71 92.3845 136.11 111.785 124.01 122.985C106.31 139.385 85.4099 145.584 61.6099 142.284C53.1099 141.084 45.2099 138.085 37.7099 133.985C37.1099 133.685 36.5099 133.084 35.1099 132.084C37.9099 132.184 39.8099 132.384 41.6099 132.384C67.5099 132.984 89.7099 124.184 108.21 106.184C111.51 102.984 112.21 98.7845 110.41 95.1845C108.71 91.6845 105.01 89.3845 101.01 90.2845C98.8099 90.7845 96.5099 92.1845 94.8099 93.7845C80.3099 107.084 63.4099 114.384 43.8099 113.884C20.2099 113.284 0.509912 92.6845 0.409912 69.1845H0.609913Z" fill="#9FE870"/>
<path d="M147.71 74.5845C147.71 74.9845 147.71 75.4845 147.51 76.0845C143.51 71.8845 140.11 67.6845 136.01 64.1845C119.01 49.7845 93.8099 47.3845 74.9099 62.1845C71.1099 65.0845 67.3099 67.9845 63.3099 70.6845C49.2099 79.9845 30.8099 77.0845 20.6099 64.0845C10.6099 51.3845 12.2099 31.9845 24.3099 20.7845C42.0099 4.38452 62.9099 -1.81548 86.7099 1.48452C95.2099 2.68452 103.11 5.68452 110.61 9.78452C111.21 10.0845 111.81 10.6845 113.21 11.6845C110.41 11.5845 108.51 11.3845 106.71 11.3845C80.8099 10.7845 58.6099 19.5845 40.1099 37.5845C36.8099 40.7845 36.1099 44.9845 37.9099 48.5845C39.6099 52.0845 43.3099 54.3845 47.3099 53.4845C49.5099 52.9845 51.8099 51.5845 53.5099 49.9845C68.0099 36.6845 84.9099 29.3845 104.51 29.8845C128.11 30.4845 147.81 51.0845 147.91 74.5845H147.71Z" fill="#9FE870"/>
<path d="M244.81 60.5845C244.31 59.2845 243.61 58.0845 242.71 56.8845C241.91 55.6845 240.61 54.6845 239.01 53.8845C237.51 52.9845 235.51 52.2845 233.11 51.7845C230.81 51.2845 227.91 50.9845 224.41 50.9845C220.91 50.9845 220.61 50.9845 218.71 51.3845C216.91 51.6845 215.31 52.0845 213.81 52.6845C212.41 53.1845 211.21 53.9845 210.31 54.8845C209.51 55.7845 209.01 56.8845 209.01 58.1845C209.01 59.4845 209.01 59.4845 209.41 60.0845C209.81 60.6845 210.21 61.2845 211.21 61.8845C212.11 62.4845 213.41 62.9845 215.11 63.4845C216.91 63.9845 219.21 64.3845 222.01 64.7845L235.71 66.8845C238.91 67.3845 241.81 68.0845 244.41 68.9845C246.91 69.8845 249.11 70.9845 250.81 72.3845C252.61 73.6845 254.01 75.2845 254.91 77.1845C255.91 79.0845 256.31 81.1845 256.31 83.5845C256.31 85.9845 255.51 89.9845 254.01 92.3845C252.51 94.6845 250.51 96.6845 247.91 98.1845C245.31 99.6845 242.31 100.684 238.81 101.384C235.41 102.084 231.71 102.384 227.81 102.384C221.61 102.384 216.51 101.684 212.41 100.384C208.41 99.0845 205.21 97.4845 202.81 95.6845C200.41 93.8845 198.71 92.0845 197.51 90.1845C196.41 88.2845 195.71 86.8845 195.41 85.6845L206.31 82.2845C206.81 83.3845 207.51 84.4845 208.41 85.6845C209.31 86.8845 210.51 87.9845 212.11 88.9845C213.71 89.9845 215.81 90.8845 218.41 91.4845C220.91 92.1845 224.11 92.4845 228.01 92.4845C231.91 92.4845 232.51 92.2845 234.51 91.8845C236.61 91.4845 238.31 90.9845 239.81 90.2845C241.31 89.5845 242.61 88.7845 243.51 87.7845C244.41 86.7845 244.91 85.6845 244.91 84.3845C244.91 80.5845 240.71 78.1845 232.31 77.1845L218.51 75.2845C211.81 74.3845 206.61 72.4845 203.01 69.6845C199.41 66.8845 197.71 63.2845 197.71 58.7845C197.71 54.2845 198.31 53.4845 199.41 51.5845C200.51 49.5845 201.91 47.8845 203.71 46.6845C205.51 45.3845 207.41 44.3845 209.51 43.6845C211.71 42.9845 213.71 42.4845 215.71 42.1845C217.71 41.8845 219.51 41.6845 221.11 41.5845H224.71C230.91 41.5845 235.91 42.1845 239.71 43.4845C243.61 44.6845 246.61 46.1845 248.81 47.8845C251.01 49.5845 252.51 51.2845 253.41 53.0845C254.31 54.7845 254.91 56.1845 255.31 57.1845L244.61 60.6845H244.81V60.5845ZM262.11 42.9845H299.61C301.51 42.9845 303.41 43.1845 305.31 43.5845C307.21 43.8845 309.01 44.3845 310.81 45.1845C312.61 45.8845 314.21 46.8845 315.61 48.1845C317.01 49.4845 318.11 51.1845 318.91 53.1845C319.71 55.1845 320.21 57.6845 320.21 60.6845C320.21 63.6845 319.81 66.0845 318.91 68.1845C318.11 70.1845 317.01 71.8845 315.61 73.1845C314.21 74.4845 312.61 75.4845 310.81 76.1845C309.01 76.8845 307.21 77.3845 305.31 77.6845C303.41 77.9845 301.51 78.1845 299.61 78.2845H273.41V100.685H262.11V42.7845V42.9845ZM296.81 68.6845C298.41 68.6845 299.91 68.6845 301.31 68.4845C302.81 68.2845 304.11 67.9845 305.21 67.4845C306.31 66.9845 307.21 66.1845 307.81 65.0845C308.51 63.9845 308.81 62.4845 308.81 60.5845C308.81 58.6845 308.51 57.2845 307.81 56.1845C307.21 55.0845 306.31 54.2845 305.21 53.7845C304.11 53.2845 302.81 52.9845 301.31 52.7845C299.91 52.5845 298.41 52.5845 296.81 52.5845H273.41V68.5845H296.81V68.6845ZM359.31 77.7845L347.21 51.9845L335.11 77.7845H359.31ZM340.71 42.9845H353.61L381.71 100.884H369.81L363.81 87.5845H330.41L324.31 100.884H312.31L340.81 42.9845H340.71ZM418.31 68.6845C420.61 68.6845 422.61 68.6845 424.31 68.3845C426.11 68.1845 427.51 67.7845 428.71 67.1845C429.91 66.5845 430.71 65.7845 431.31 64.6845C431.91 63.5845 432.21 62.1845 432.21 60.4845C432.21 58.7845 431.91 57.3845 431.31 56.3845C430.71 55.2845 429.81 54.4845 428.71 53.8845C427.51 53.2845 426.11 52.8845 424.31 52.6845C422.51 52.4845 420.51 52.3845 418.31 52.3845H396.51V68.6845H418.31ZM385.21 42.9845H420.01C423.41 42.9845 426.51 43.1845 429.41 43.6845C432.31 44.1845 434.81 45.0845 436.91 46.2845C439.01 47.5845 440.71 49.2845 441.81 51.5845C443.01 53.7845 443.61 56.6845 443.61 60.2845C443.61 63.8845 443.11 65.2845 442.21 67.3845C441.41 69.4845 440.21 71.1845 438.71 72.6845C437.21 74.0845 435.51 75.1845 433.51 75.9845C431.51 76.7845 429.51 77.1845 427.41 77.3845L445.11 100.985H431.21L414.41 78.1845H396.51V100.985H385.21V43.0845V42.9845ZM485.11 68.6845C487.41 68.6845 489.41 68.6845 491.11 68.3845C492.91 68.1845 494.31 67.7845 495.51 67.1845C496.71 66.5845 497.51 65.7845 498.11 64.6845C498.71 63.5845 499.01 62.1845 499.01 60.4845C499.01 58.7845 498.71 57.3845 498.11 56.3845C497.51 55.2845 496.61 54.4845 495.51 53.8845C494.31 53.2845 492.91 52.8845 491.11 52.6845C489.31 52.4845 487.31 52.3845 485.11 52.3845H463.31V68.6845H485.11ZM452.01 42.9845H486.81C490.21 42.9845 493.31 43.1845 496.21 43.6845C499.11 44.1845 501.61 45.0845 503.71 46.2845C505.81 47.5845 507.51 49.2845 508.61 51.5845C509.81 53.7845 510.41 56.6845 510.41 60.2845C510.41 63.8845 509.91 65.2845 509.01 67.3845C508.21 69.4845 507.01 71.1845 505.51 72.6845C504.01 74.0845 502.31 75.1845 500.31 75.9845C498.31 76.7845 496.31 77.1845 494.21 77.3845L511.91 100.985H498.01L481.21 78.1845H463.31V100.985H452.01V43.0845V42.9845ZM519.41 42.9845H530.71V100.884H519.41V42.9845ZM541.21 42.9845H553.11L591.81 84.7845V42.9845H602.61V100.884H592.31L552.01 57.5845V100.884H541.21V42.9845ZM672.01 71.0845V101.384H665.21L663.01 95.3845C661.91 96.0845 660.71 96.8845 659.31 97.6845C658.01 98.3845 656.41 99.1845 654.71 99.7845C653.01 100.485 651.01 100.985 648.81 101.485C646.61 101.885 644.11 102.084 641.31 102.084C638.51 102.084 636.31 101.885 633.71 101.485C631.11 101.085 628.61 100.384 626.11 99.3845C623.71 98.3845 621.41 97.1845 619.31 95.6845C617.21 94.0845 615.31 92.1845 613.71 89.9845C612.11 87.7845 610.81 85.1845 609.91 82.1845C609.01 79.1845 608.51 75.7845 608.51 71.8845C608.51 67.9845 609.11 64.2845 610.31 60.5845C611.51 56.8845 613.41 53.6845 616.01 50.8845C618.61 47.9845 621.91 45.7845 626.01 44.0845C630.11 42.2845 635.01 41.4845 640.81 41.4845C646.61 41.4845 647.51 41.7845 650.81 42.4845C654.11 43.0845 657.21 44.1845 660.01 45.7845C662.81 47.2845 665.21 49.3845 667.21 51.7845C669.31 54.1845 670.61 57.2845 671.31 60.9845H659.81C659.51 60.2845 659.01 59.2845 658.31 58.1845C657.71 57.0845 656.71 55.9845 655.41 54.9845C654.11 53.8845 652.41 52.9845 650.31 52.2845C648.21 51.5845 645.41 51.1845 642.11 51.1845C638.81 51.1845 633.81 51.8845 630.91 53.2845C628.01 54.5845 625.81 56.2845 624.11 58.3845C622.51 60.3845 621.31 62.5845 620.71 64.9845C620.11 67.2845 619.71 69.4845 619.71 71.4845C619.71 74.9845 620.21 77.9845 621.31 80.5845C622.41 83.0845 623.91 85.2845 625.81 86.9845C627.71 88.6845 630.01 89.9845 632.61 90.8845C635.31 91.6845 638.11 92.1845 641.21 92.1845C646.81 92.1845 651.21 91.1845 654.41 89.2845C657.61 87.2845 659.91 84.2845 661.21 80.1845H640.91V71.0845H672.01Z" fill="#9FE870"/>
</svg>
