<svg width="87" height="82" viewBox="0 0 87 82" fill="none" xmlns="http://www.w3.org/2000/svg">
<path d="M16.4347 25.1535C16.4347 24.9935 16.4734 24.8385 16.5074 24.6059C17.9375 26.1086 19.1735 27.6547 20.6518 28.9152C26.7788 34.1307 35.9206 34.9691 42.7502 29.6469C44.1221 28.5807 45.5082 27.5383 46.9527 26.5835C52.0473 23.2145 58.6879 24.2618 62.3765 28.9684C65.9729 33.5636 65.4062 40.5581 61.0532 44.6053C54.6694 50.5383 47.0982 52.7728 38.5186 51.5853C35.4598 51.1636 32.5856 50.073 29.8712 48.5947C29.6432 48.4684 29.4541 48.2794 28.9452 47.8917C29.9727 47.9403 30.637 47.9889 31.3059 48.0031C40.6562 48.2163 48.6832 45.0366 55.3866 38.5265C56.579 37.3682 56.8262 35.8363 56.1913 34.552C55.5614 33.2773 54.2381 32.4726 52.7935 32.7925C51.9888 32.9716 51.1698 33.4951 50.5495 34.0672C45.3241 38.861 39.2166 41.498 32.1057 41.3235C23.5601 41.1153 16.4397 33.6458 16.4347 25.1535Z" fill="#9FE870"/>
<path d="M69.5853 27.1092C69.5853 27.2691 69.5466 27.4241 69.5126 27.6568C68.0825 26.154 66.8465 24.608 65.3682 23.3475C59.2412 18.132 50.0994 17.2935 43.2698 22.6158C41.8979 23.6819 40.5118 24.7243 39.0672 25.6791C33.9727 29.0482 27.3321 28.0008 23.6435 23.2943C20.047 18.6991 20.6138 11.7045 24.9667 7.65733C31.3502 1.72432 38.9218 -0.510134 47.5014 0.677319C50.5601 1.09903 53.4344 2.18966 56.1488 3.66794C56.3768 3.79421 56.5658 3.98325 57.0748 4.37091C56.0473 4.32232 55.383 4.27373 54.7141 4.25954C45.3638 4.04638 37.3368 7.22605 30.6334 13.7361C29.441 14.8945 29.1938 16.4263 29.8286 17.7106C30.4585 18.9853 31.7818 19.7901 33.2264 19.4702C34.0312 19.291 34.8501 18.7675 35.4705 18.1955C40.6959 13.4017 46.8034 10.7646 53.9143 10.9391C62.4598 11.1477 69.5803 18.6172 69.5853 27.1095V27.1092Z" fill="#9FE870"/>
<path d="M9.37436 72.4875C9.28966 72.2616 9.16732 72.0452 9.00734 71.8382C8.85677 71.6311 8.64032 71.4523 8.35799 71.3017C8.08508 71.1418 7.73688 71.0147 7.31339 70.9206C6.89932 70.8265 6.38643 70.7794 5.77473 70.7794C5.43594 70.7794 5.10185 70.803 4.77248 70.85C4.45251 70.8971 4.16077 70.9724 3.89727 71.0759C3.64318 71.17 3.43614 71.3017 3.27616 71.4711C3.12559 71.6311 3.0503 71.8287 3.0503 72.064C3.0503 72.1769 3.07383 72.2899 3.12088 72.4028C3.16793 72.5063 3.27145 72.6098 3.43144 72.7134C3.59142 72.8169 3.82199 72.911 4.12313 72.9957C4.43369 73.0804 4.84306 73.1557 5.35124 73.2215L7.77923 73.5886C8.35329 73.6733 8.86618 73.7956 9.31789 73.9556C9.76961 74.1156 10.1508 74.3179 10.4613 74.5626C10.7813 74.7979 11.0212 75.0802 11.1812 75.4096C11.3506 75.7389 11.4353 76.1201 11.4353 76.553C11.4353 77.1647 11.2989 77.6823 11.026 78.1057C10.7625 78.5198 10.4001 78.8633 9.93901 79.1362C9.47788 79.3997 8.94146 79.5879 8.32976 79.7009C7.71806 79.8232 7.06871 79.8844 6.38172 79.8844C5.28066 79.8844 4.37252 79.7668 3.6573 79.5315C2.95149 79.2962 2.38684 79.0186 1.96335 78.6986C1.53987 78.3787 1.22931 78.054 1.03168 77.7246C0.843466 77.3952 0.721125 77.1317 0.66466 76.9341L2.59858 76.3271C2.69269 76.5153 2.81503 76.7177 2.9656 76.9341C3.12559 77.1411 3.34674 77.3388 3.62906 77.527C3.9208 77.7058 4.29253 77.8564 4.74424 77.9787C5.19596 78.101 5.76061 78.1622 6.43819 78.1622C6.84285 78.1622 7.2287 78.1293 7.59572 78.0634C7.96274 77.9975 8.278 77.9034 8.5415 77.7811C8.81442 77.6587 9.03087 77.5129 9.19085 77.3435C9.35083 77.1647 9.43082 76.9623 9.43082 76.7365C9.43082 76.0683 8.68737 75.6401 7.20046 75.4519L4.74424 75.1131C3.54907 74.9531 2.63152 74.6238 1.99158 74.125C1.36106 73.6262 1.0458 72.9816 1.0458 72.1911C1.0458 71.6829 1.14461 71.2547 1.34224 70.9065C1.53987 70.5489 1.79396 70.2571 2.10451 70.0313C2.41507 69.796 2.75856 69.6172 3.135 69.4949C3.52084 69.3725 3.88786 69.2831 4.23606 69.2267C4.59367 69.1702 4.91364 69.1373 5.19596 69.1278C5.4877 69.1184 5.69944 69.1137 5.83119 69.1137C6.93226 69.1137 7.82158 69.2267 8.49915 69.4525C9.18614 69.669 9.72256 69.9278 10.1084 70.2289C10.4942 70.5301 10.7672 70.8359 10.9271 71.1465C11.0871 71.4476 11.2001 71.6876 11.2659 71.8664L9.37436 72.4875ZM12.4377 69.3678H18.1547C18.4465 69.3678 18.7617 69.3725 19.1005 69.3819C19.4393 69.3913 19.7781 69.4243 20.1169 69.4807C20.4557 69.5372 20.7804 69.6313 21.0909 69.7631C21.4109 69.8854 21.6932 70.0642 21.9379 70.2995C22.1826 70.5348 22.3755 70.8312 22.5167 71.1888C22.6672 71.5464 22.7425 71.9887 22.7425 72.5157C22.7425 73.0333 22.6672 73.4756 22.5167 73.8427C22.3755 74.2003 22.1826 74.4967 21.9379 74.732C21.6932 74.9578 21.4109 75.1366 21.0909 75.2684C20.7804 75.3907 20.4557 75.4801 20.1169 75.5366C19.7781 75.5931 19.4393 75.626 19.1005 75.6354C18.7617 75.6448 18.4465 75.6495 18.1547 75.6495H14.4422V79.6303H12.4377V69.3678ZM18.5924 73.9274C18.8747 73.9274 19.1429 73.9179 19.397 73.8991C19.6605 73.8709 19.891 73.8097 20.0887 73.7156C20.2863 73.6215 20.4416 73.4803 20.5545 73.2921C20.6768 73.0945 20.738 72.831 20.738 72.5016C20.738 72.1722 20.6768 71.9134 20.5545 71.7252C20.4416 71.537 20.2863 71.3958 20.0887 71.3017C19.891 71.2076 19.6605 71.1512 19.397 71.1323C19.1429 71.1041 18.8747 71.09 18.5924 71.09H14.4422V73.9274H18.5924ZM29.6709 75.5507L27.5253 70.9771L25.3796 75.5507H29.6709ZM26.3819 69.3678H28.6687L33.6517 79.6303H31.5343L30.4614 77.2729H24.5467L23.4598 79.6303H21.3282L26.3819 69.3678ZM40.1405 73.9274C40.5452 73.9274 40.9028 73.9085 41.2134 73.8709C41.5239 73.8332 41.7827 73.7627 41.9897 73.6591C42.1968 73.5556 42.3521 73.4098 42.4556 73.2215C42.5591 73.0239 42.6109 72.7745 42.6109 72.4734C42.6109 72.1722 42.5591 71.9276 42.4556 71.7393C42.3521 71.5511 42.1968 71.4053 41.9897 71.3017C41.7827 71.1982 41.5239 71.1276 41.2134 71.09C40.9028 71.0524 40.5452 71.0335 40.1405 71.0335H36.2727V73.9274H40.1405ZM34.2682 69.3678H40.437C41.0393 69.3678 41.5945 69.4102 42.1027 69.4949C42.6203 69.5796 43.0626 69.7348 43.4296 69.9607C43.806 70.1866 44.0978 70.4971 44.3048 70.8924C44.5118 71.2876 44.6154 71.8005 44.6154 72.431C44.6154 72.9016 44.5354 73.3204 44.3754 73.6874C44.2248 74.0544 44.0178 74.365 43.7543 74.619C43.4908 74.8731 43.1849 75.0708 42.8367 75.2119C42.4885 75.3531 42.1262 75.4331 41.7498 75.4519L44.8977 79.6303H42.4273L39.4488 75.5931H36.2727V79.6303H34.2682V69.3678ZM51.9794 73.9274C52.384 73.9274 52.7417 73.9085 53.0522 73.8709C53.3628 73.8332 53.6216 73.7627 53.8286 73.6591C54.0356 73.5556 54.1909 73.4098 54.2944 73.2215C54.398 73.0239 54.4497 72.7745 54.4497 72.4734C54.4497 72.1722 54.398 71.9276 54.2944 71.7393C54.1909 71.5511 54.0356 71.4053 53.8286 71.3017C53.6216 71.1982 53.3628 71.1276 53.0522 71.09C52.7417 71.0524 52.384 71.0335 51.9794 71.0335H48.1115V73.9274H51.9794ZM46.107 69.3678H52.2758C52.8781 69.3678 53.4334 69.4102 53.9415 69.4949C54.4591 69.5796 54.9014 69.7348 55.2685 69.9607C55.6449 70.1866 55.9366 70.4971 56.1437 70.8924C56.3507 71.2876 56.4542 71.8005 56.4542 72.431C56.4542 72.9016 56.3742 73.3204 56.2142 73.6874C56.0637 74.0544 55.8566 74.365 55.5931 74.619C55.3296 74.8731 55.0238 75.0708 54.6756 75.2119C54.3274 75.3531 53.9651 75.4331 53.5886 75.4519L56.7365 79.6303H54.2662L51.2877 75.5931H48.1115V79.6303H46.107V69.3678ZM58.073 69.3678H60.0775V79.6303H58.073V69.3678ZM61.9271 69.3678H64.0445L70.905 76.7788V69.3678H72.8248V79.6303H70.9897L63.8469 71.9511V79.6303H61.9271V69.3678ZM85.1389 74.365V79.7432H83.9249L83.5297 78.6845C83.332 78.8163 83.1156 78.9527 82.8803 79.0939C82.645 79.2256 82.3721 79.3527 82.0616 79.475C81.7604 79.5974 81.4122 79.6962 81.017 79.7715C80.6311 79.8467 80.1888 79.8844 79.69 79.8844C79.2571 79.8844 78.8101 79.8467 78.349 79.7715C77.8879 79.6962 77.4409 79.5738 77.008 79.4044C76.5845 79.235 76.1798 79.0139 75.794 78.741C75.4175 78.4587 75.0882 78.1199 74.8058 77.7246C74.5235 77.3294 74.2977 76.8682 74.1283 76.3412C73.9683 75.8048 73.8883 75.1978 73.8883 74.5202C73.8883 73.8332 73.9965 73.1651 74.213 72.5157C74.4294 71.8664 74.7682 71.2923 75.2293 70.7936C75.6905 70.2854 76.2833 69.8807 77.008 69.5796C77.7326 69.269 78.6078 69.1137 79.6336 69.1137C80.2265 69.1137 80.8193 69.1749 81.4122 69.2972C82.0051 69.4102 82.5509 69.6031 83.0497 69.876C83.5485 70.1489 83.9767 70.5065 84.3343 70.9488C84.7013 71.3817 84.946 71.9229 85.0683 72.5722H83.0215C82.965 72.4404 82.8756 72.2758 82.7533 72.0781C82.6403 71.8805 82.4662 71.6923 82.231 71.5135C82.0051 71.3253 81.704 71.1653 81.3275 71.0335C80.9511 70.9018 80.4664 70.8359 79.8736 70.8359C79.0642 70.8359 78.4008 70.9582 77.8832 71.2029C77.375 71.4382 76.9703 71.7393 76.6692 72.1064C76.3774 72.464 76.1751 72.8545 76.0622 73.278C75.9493 73.6921 75.8928 74.0779 75.8928 74.4355C75.8928 75.0472 75.9869 75.5837 76.1751 76.0448C76.3727 76.4965 76.6409 76.8776 76.9797 77.1882C77.3185 77.4893 77.7185 77.7199 78.1796 77.8799C78.6502 78.0305 79.1583 78.1057 79.7042 78.1057C80.7017 78.1057 81.4828 77.9316 82.0475 77.5834C82.6121 77.2352 83.0168 76.6988 83.2614 75.9742H79.6618V74.365H85.1389Z" fill="#9FE870"/>
</svg>
