    <svg width="250" height="67" viewBox="0 0 170 47" fill="none" xmlns="http://www.w3.org/2000/svg">
    <path d="M69.9607 21.5004C69.8493 21.2033 69.6884 20.9186 69.478 20.6463C69.2799 20.374 68.9952 20.1388 68.6239 19.9408C68.265 19.7304 67.807 19.5633 67.25 19.4395C66.7054 19.3157 66.0308 19.2538 65.2263 19.2538C64.7807 19.2538 64.3413 19.2848 63.9081 19.3467C63.4872 19.4086 63.1035 19.5076 62.757 19.6437C62.4228 19.7675 62.1505 19.9408 61.9401 20.1636C61.742 20.374 61.643 20.6339 61.643 20.9434C61.643 21.0919 61.6739 21.2404 61.7358 21.389C61.7977 21.5251 61.9339 21.6613 62.1443 21.7974C62.3547 21.9336 62.658 22.0573 63.054 22.1687C63.4625 22.2801 64.0009 22.3792 64.6693 22.4658L67.8627 22.9485C68.6177 23.0599 69.2923 23.2208 69.8864 23.4312C70.4805 23.6417 70.9818 23.9078 71.3903 24.2296C71.8111 24.539 72.1268 24.9104 72.3372 25.3436C72.56 25.7768 72.6714 26.2781 72.6714 26.8474C72.6714 27.652 72.4919 28.3327 72.1329 28.8897C71.7864 29.4343 71.3098 29.8861 70.7033 30.2451C70.0968 30.5916 69.3913 30.8392 68.5868 30.9877C67.7822 31.1486 66.9282 31.2291 66.0246 31.2291C64.5765 31.2291 63.382 31.0744 62.4413 30.7649C61.513 30.4555 60.7704 30.0904 60.2134 29.6695C59.6564 29.2487 59.2479 28.8217 58.988 28.3884C58.7405 27.9552 58.5796 27.6087 58.5053 27.3487L61.0489 26.5504C61.1726 26.7979 61.3336 27.0641 61.5316 27.3487C61.742 27.621 62.0329 27.881 62.4042 28.1285C62.7879 28.3637 63.2768 28.5617 63.8709 28.7226C64.4651 28.8835 65.2077 28.964 66.0989 28.964C66.6311 28.964 67.1386 28.9207 67.6213 28.834C68.1041 28.7474 68.5187 28.6236 68.8653 28.4627C69.2242 28.3018 69.5089 28.11 69.7193 27.8872C69.9297 27.652 70.035 27.3859 70.035 27.0888C70.035 26.21 69.0571 25.6468 67.1015 25.3993L63.8709 24.9537C62.299 24.7433 61.0922 24.3101 60.2505 23.654C59.4212 22.998 59.0066 22.1502 59.0066 21.1105C59.0066 20.4421 59.1365 19.8789 59.3965 19.4209C59.6564 18.9506 59.9906 18.5669 60.3991 18.2698C60.8075 17.9604 61.2593 17.7252 61.7544 17.5643C62.2619 17.4034 62.7446 17.2858 63.2026 17.2115C63.6729 17.1373 64.0937 17.094 64.4651 17.0816C64.8488 17.0692 65.1273 17.063 65.3006 17.063C66.7487 17.063 67.9184 17.2115 68.8096 17.5086C69.7131 17.7933 70.4187 18.1337 70.9261 18.5297C71.4336 18.9258 71.7926 19.3281 72.003 19.7366C72.2134 20.1326 72.3619 20.4483 72.4486 20.6834L69.9607 21.5004Z" fill="#9FE870"/>
    <path d="M73.9897 17.3972H81.5091C81.8928 17.3972 82.3074 17.4034 82.753 17.4158C83.1986 17.4281 83.6442 17.4715 84.0898 17.5457C84.5354 17.62 84.9624 17.7438 85.3709 17.9171C85.7917 18.078 86.163 18.3131 86.4848 18.6226C86.8066 18.932 87.0604 19.3219 87.246 19.7923C87.4441 20.2626 87.5431 20.8443 87.5431 21.5375C87.5431 22.2183 87.4441 22.8 87.246 23.2827C87.0604 23.7531 86.8066 24.143 86.4848 24.4524C86.163 24.7495 85.7917 24.9846 85.3709 25.1579C84.9624 25.3188 84.5354 25.4364 84.0898 25.5107C83.6442 25.5849 83.1986 25.6283 82.753 25.6406C82.3074 25.653 81.8928 25.6592 81.5091 25.6592H76.6261V30.8949H73.9897V17.3972ZM82.0846 23.3941C82.456 23.3941 82.8087 23.3817 83.1429 23.357C83.4895 23.3199 83.7927 23.2394 84.0527 23.1156C84.3126 22.9918 84.5168 22.8062 84.6653 22.5586C84.8262 22.2987 84.9067 21.9521 84.9067 21.5189C84.9067 21.0857 84.8262 20.7453 84.6653 20.4978C84.5168 20.2502 84.3126 20.0646 84.0527 19.9408C83.7927 19.817 83.4895 19.7427 83.1429 19.718C82.8087 19.6809 82.456 19.6623 82.0846 19.6623H76.6261V23.3941H82.0846Z" fill="#9FE870"/>
    <path d="M96.6557 25.5292L93.8336 19.5138L91.0115 25.5292H96.6557ZM92.3297 17.3972H95.3375L101.891 30.8949H99.1064L97.6954 27.7943H89.9161L88.4865 30.8949H85.683L92.3297 17.3972Z" fill="#9FE870"/>
    <path d="M110.426 23.3941C110.958 23.3941 111.428 23.3694 111.837 23.3199C112.245 23.2703 112.586 23.1775 112.858 23.0414C113.13 22.9052 113.334 22.7134 113.471 22.4658C113.607 22.2059 113.675 21.8779 113.675 21.4818C113.675 21.0857 113.607 20.7639 113.471 20.5163C113.334 20.2688 113.13 20.0769 112.858 19.9408C112.586 19.8046 112.245 19.7118 111.837 19.6623C111.428 19.6128 110.958 19.588 110.426 19.588H105.339V23.3941H110.426ZM102.702 17.3972H110.816C111.608 17.3972 112.338 17.4529 113.006 17.5643C113.687 17.6757 114.269 17.8799 114.752 18.177C115.247 18.474 115.631 18.8825 115.903 19.4024C116.175 19.9222 116.311 20.5968 116.311 21.4261C116.311 22.045 116.206 22.5958 115.996 23.0785C115.798 23.5612 115.525 23.9697 115.179 24.3039C114.832 24.6381 114.43 24.898 113.972 25.0836C113.514 25.2693 113.037 25.3745 112.542 25.3993L116.683 30.8949H113.434L109.516 25.5849H105.339V30.8949H102.702V17.3972Z" fill="#9FE870"/>
    <path d="M125.997 23.3941C126.529 23.3941 126.999 23.3694 127.408 23.3199C127.816 23.2703 128.157 23.1775 128.429 23.0414C128.701 22.9052 128.906 22.7134 129.042 22.4658C129.178 22.2059 129.246 21.8779 129.246 21.4818C129.246 21.0857 129.178 20.7639 129.042 20.5163C128.906 20.2688 128.701 20.0769 128.429 19.9408C128.157 19.8046 127.816 19.7118 127.408 19.6623C126.999 19.6128 126.529 19.588 125.997 19.588H120.91V23.3941H125.997ZM118.273 17.3972H126.387C127.179 17.3972 127.909 17.4529 128.578 17.5643C129.258 17.6757 129.84 17.8799 130.323 18.177C130.818 18.474 131.202 18.8825 131.474 19.4024C131.746 19.9222 131.882 20.5968 131.882 21.4261C131.882 22.045 131.777 22.5958 131.567 23.0785C131.369 23.5612 131.096 23.9697 130.75 24.3039C130.403 24.6381 130.001 24.898 129.543 25.0836C129.085 25.2693 128.608 25.3745 128.113 25.3993L132.254 30.8949H129.005L125.087 25.5849H120.91V30.8949H118.273V17.3972Z" fill="#9FE870"/>
    <path d="M134.011 17.3972H136.648V30.8949H134.011V17.3972Z" fill="#9FE870"/>
    <path d="M139.081 17.3972H141.865L150.889 27.1445V17.3972H153.414V30.8949H151L141.606 20.7948V30.8949H139.081V17.3972Z" fill="#9FE870"/>
    <path d="M169.61 23.9697V31.0434H168.013L167.493 29.651C167.233 29.8242 166.949 30.0037 166.639 30.1894C166.33 30.3627 165.971 30.5298 165.562 30.6907C165.166 30.8516 164.708 30.9815 164.188 31.0806C163.681 31.1796 163.099 31.2291 162.443 31.2291C161.874 31.2291 161.286 31.1796 160.679 31.0806C160.073 30.9815 159.485 30.8206 158.916 30.5978C158.359 30.375 157.826 30.0842 157.319 29.7252C156.824 29.3539 156.391 28.9083 156.019 28.3884C155.648 27.8686 155.351 27.2621 155.128 26.569C154.918 25.8634 154.812 25.0651 154.812 24.1739C154.812 23.2703 154.955 22.3915 155.239 21.5375C155.524 20.6834 155.97 19.9284 156.576 19.2724C157.183 18.604 157.962 18.0718 158.916 17.6757C159.869 17.2672 161.02 17.063 162.369 17.063C163.149 17.063 163.928 17.1435 164.708 17.3044C165.488 17.4529 166.206 17.7066 166.862 18.0656C167.518 18.4245 168.081 18.8949 168.551 19.4766C169.034 20.046 169.356 20.7577 169.517 21.6118H166.825C166.751 21.4385 166.633 21.2219 166.472 20.9619C166.324 20.702 166.095 20.4545 165.785 20.2193C165.488 19.9717 165.092 19.7613 164.597 19.588C164.102 19.4147 163.464 19.3281 162.685 19.3281C161.62 19.3281 160.747 19.489 160.067 19.8108C159.398 20.1203 158.866 20.5163 158.47 20.9991C158.086 21.4694 157.82 21.9831 157.672 22.5401C157.523 23.0847 157.449 23.5922 157.449 24.0625C157.449 24.867 157.573 25.5726 157.82 26.1791C158.08 26.7732 158.433 27.2745 158.878 27.6829C159.324 28.079 159.85 28.3823 160.457 28.5927C161.075 28.7907 161.744 28.8897 162.462 28.8897C163.774 28.8897 164.801 28.6608 165.544 28.2028C166.286 27.7448 166.819 27.0393 167.14 26.0862H162.406V23.9697H169.61Z" fill="#9FE870"/>
    <path d="M41.2232 9.37208C41.7379 9.9797 42.2024 10.6338 42.6397 11.3033C43.166 12.1083 43.6885 12.9211 44.1181 13.7803C44.5593 14.6588 44.9076 15.5876 45.256 16.5049C45.9062 18.2117 46.2661 19.992 46.4596 21.8032C46.7808 24.7523 46.5022 27.6511 45.7243 30.5189C45.1321 32.6979 44.2304 34.7413 43.0074 36.6378C42.4307 37.5318 41.7728 38.3755 41.1071 39.2076C38.9127 41.9554 35.8513 44.1305 32.6778 45.5934C31.5709 46.1043 30.3866 46.5378 29.1675 46.4952C27.9484 46.4526 26.6867 45.8373 26.1758 44.7304C25.6417 43.5732 26.0287 42.2225 26.4196 41.0111C28.227 35.407 30.0344 29.7991 31.8457 24.195C32.1166 23.3513 32.4185 22.5231 32.5346 21.6368C32.7203 20.2203 32.5655 18.8425 32.074 17.4957C31.7721 16.6752 31.3232 15.9476 30.8201 15.2393C30.3169 14.5233 29.7016 13.9196 28.9778 13.4397C28.3973 13.0488 27.7626 12.7276 27.1201 12.4334C25.0225 11.4852 22.8939 11.5781 20.773 12.3599C20.0067 12.6424 19.3062 13.0604 18.6405 13.548C15.8114 15.6225 14.4065 19.5159 15.5598 23.1075C15.9391 24.2685 16.2758 25.4373 16.6473 26.5945C16.926 27.477 17.2317 28.3555 17.522 29.234C17.8161 30.1281 18.0987 31.0182 18.385 31.9161C19.4107 35.1168 20.4401 38.3174 21.4696 41.5181C21.8141 42.5901 22.1585 43.759 21.7754 44.8155C21.3458 45.9998 20.0725 46.7197 18.8185 46.8242C17.5646 46.9325 16.3261 46.5339 15.1573 46.0617C9.46807 43.7667 4.62643 39.5095 2.12627 33.8551C0.961332 31.2349 0.253083 28.4987 0.0827931 25.6231C-0.0487943 23.4442 0.140846 21.2923 0.609143 19.156C1.01552 17.2905 1.61927 15.4948 2.50168 13.8035C2.91966 13.0023 3.357 12.2051 3.85625 11.4504C4.36712 10.6763 4.94766 9.941 5.53206 9.21727C5.92682 8.72962 6.38738 8.30003 6.82084 7.84334C6.92921 7.72724 7.02983 7.60726 7.13433 7.48728C7.54457 7.11961 7.94707 6.74807 8.35732 6.3804C8.37667 6.36105 8.40376 6.34557 8.42698 6.32235L8.46568 6.28752C9.26295 5.72633 10.037 5.13419 10.8536 4.60784C11.5812 4.14342 12.3475 3.74478 13.1061 3.33454C13.5357 3.1062 13.9691 2.87011 14.4258 2.69983C15.2734 2.38634 16.1326 2.11542 16.9918 1.8329C18.2651 1.41491 19.5809 1.21366 20.9046 1.0782C23.8885 0.772458 26.8299 0.99306 29.7093 1.85225C30.5569 2.10381 31.3967 2.39021 32.2133 2.72692C33.0532 3.07524 33.8814 3.46226 34.6709 3.90733C35.5108 4.3795 36.3274 4.91359 37.1092 5.47477C37.7052 5.90049 38.2276 6.42297 38.8043 6.88353C39.7216 7.61113 40.4685 8.49354 41.2232 9.37208Z" fill="#9FE870"/>
    <path d="M8.46458 6.28753C8.46458 6.28753 8.43826 6.31107 8.42698 6.32235C8.43826 6.31107 8.4533 6.29881 8.46458 6.28753Z" fill="#9FE870"/>
    <path d="M5.55907 39.285C5.55907 39.285 5.58576 39.3155 5.59719 39.3269C5.58576 39.3117 5.57051 39.2964 5.55907 39.285Z" fill="#9FE870"/>
    <path d="M5.68687 39.4282C5.68687 39.4282 5.71356 39.4587 5.72499 39.4701C5.71356 39.4549 5.69831 39.4396 5.68687 39.4282Z" fill="#9FE870"/>
    <path d="M6.33316 40.1442C6.33316 40.1442 6.35985 40.1708 6.37128 40.1861C6.35985 40.1708 6.3446 40.1594 6.33316 40.1442Z" fill="#9FE870"/>
    <path d="M38.4056 41.9235C38.4056 41.9235 38.432 41.9009 38.4432 41.8897C38.432 41.9009 38.4169 41.9122 38.4056 41.9235Z" fill="#9FE870"/>
    <path d="M23.8962 25.9676C25.5591 25.9676 26.9072 24.6195 26.9072 22.9566C26.9072 21.2936 25.5591 19.9455 23.8962 19.9455C22.2332 19.9455 20.8852 21.2936 20.8852 22.9566C20.8852 24.6195 22.2332 25.9676 23.8962 25.9676Z" fill="#9FE870"/>
    </svg>
