<svg width="23" height="23" viewBox="0 0 23 23" fill="none" xmlns="http://www.w3.org/2000/svg">
<path d="M20.3851 2.18554C19.755 1.55161 19.0062 1.04805 18.1814 0.703642C17.3566 0.359237 16.472 0.180738 15.5782 0.178345H15.5464C13.634 0.178345 11.7665 0.992947 10.2854 2.47422C8.77651 3.98314 7.54361 6.27605 6.98739 8.60784C6.84691 9.18921 6.75379 9.78101 6.70891 10.3774C6.65103 11.3001 6.3848 12.1976 5.93022 13.0026C5.61195 13.5529 5.22279 14.0591 4.77272 14.5081L0.728278 18.6508C0.0962974 19.2849 0.0290131 19.937 0.0842075 20.3727C0.148176 20.8787 0.417058 21.3813 0.861776 21.826C1.30649 22.2708 1.80931 22.5397 2.31514 22.6036C2.39558 22.6138 2.47657 22.6189 2.55765 22.6189C2.97533 22.6189 3.51437 22.4822 4.04076 21.9558L8.08485 17.8136C8.56786 17.3299 9.1169 16.917 9.71563 16.5871C10.4813 16.1747 11.3269 15.9321 12.1948 15.8758C12.7947 15.8299 13.3899 15.735 13.9744 15.5921C16.2976 15.0315 18.5863 13.7951 20.0963 12.285C21.5858 10.7955 22.4011 8.91584 22.3921 6.99225C22.3897 6.0985 22.2112 5.21398 21.8668 4.38922C21.5225 3.56447 21.019 2.81565 20.3851 2.18554ZM2.88341 20.8047C2.68222 21.0045 2.56428 20.9896 2.5198 20.9841C2.38059 20.9665 2.197 20.8527 2.01606 20.6717C1.83513 20.4908 1.72127 20.3072 1.70367 20.168C1.69801 20.1232 1.68301 20.0047 1.88614 19.8014L5.11894 16.4901L6.11927 17.4905L2.88341 20.8047ZM7.27295 16.3356L6.25415 15.3169C6.66483 14.861 7.02702 14.3637 7.33488 13.8329C7.66907 14.4287 8.1612 14.9208 8.75708 15.2548C8.22626 15.5627 7.72888 15.9249 7.27295 16.3356ZM18.9423 11.1311C17.6551 12.4183 15.6049 13.5198 13.5917 14.0056C11.5882 14.4891 9.90993 14.2956 9.10207 13.4878C7.37977 11.7654 8.64689 6.42113 11.4397 3.62835C12.7182 2.3498 14.1688 1.81704 15.5304 1.81704C16.9162 1.81782 18.2459 2.36496 19.2309 3.33978C21.0495 5.15834 21.5664 8.50699 18.9423 11.1311Z" fill="#A8A8A8"/>
</svg>
